# Exported from ProBuilder
# http://www.procore3d.com/probuilder
# 7/9/2018 2:34:31 AM

mtllib ./IcosphereLessPoly.mtl
o IcosphereLessPoly

g Icosphere
v -1 5.568 94
v -0.6750803 4.717349 94.52573
v -1.525731 5.24308 94.85065
v -1 5.568 94
v -1.525731 5.24308 94.85065
v -2.051462 5.568 94
v -1 5.568 94
v -2.051462 5.568 94
v -1.525731 5.24308 93.14935
v -1 5.568 94
v -1.525731 5.24308 93.14935
v -0.6750803 4.717349 93.47427
v -1 5.568 94
v -0.6750803 4.717349 93.47427
v -0.6750803 4.717349 94.52573
v -2.051462 5.568 94
v -1.525731 5.24308 94.85065
v -2.376382 4.717349 94.52573
v -1.525731 5.24308 94.85065
v -0.6750803 4.717349 94.52573
v -1.525731 4.191618 94.85065
v -0.6750803 4.717349 94.52573
v -0.6750803 4.717349 93.47427
v -1 3.866698 94
v -0.6750803 4.717349 93.47427
v -1.525731 5.24308 93.14935
v -1.525731 4.191618 93.14935
v -1.525731 5.24308 93.14935
v -2.051462 5.568 94
v -2.376382 4.717349 93.47427
v -2.051462 3.866698 94
v -2.376382 4.717349 94.52573
v -1.525731 4.191618 94.85065
v -2.051462 3.866698 94
v -1.525731 4.191618 94.85065
v -1 3.866698 94
v -2.051462 3.866698 94
v -1 3.866698 94
v -1.525731 4.191618 93.14935
v -2.051462 3.866698 94
v -1.525731 4.191618 93.14935
v -2.376382 4.717349 93.47427
v -2.051462 3.866698 94
v -2.376382 4.717349 93.47427
v -2.376382 4.717349 94.52573
v -1.525731 4.191618 94.85065
v -2.376382 4.717349 94.52573
v -1.525731 5.24308 94.85065
v -1 3.866698 94
v -1.525731 4.191618 94.85065
v -0.6750803 4.717349 94.52573
v -1.525731 4.191618 93.14935
v -1 3.866698 94
v -0.6750803 4.717349 93.47427
v -2.376382 4.717349 93.47427
v -1.525731 4.191618 93.14935
v -1.525731 5.24308 93.14935
v -2.376382 4.717349 94.52573
v -2.376382 4.717349 93.47427
v -2.051462 5.568 94

vn 0.5773503 0.5773503 0.5773503
vn 0.5773503 0.5773503 0.5773503
vn 0.5773503 0.5773503 0.5773503
vn 0 0.9341723 0.3568221
vn 0 0.9341723 0.3568221
vn 0 0.9341723 0.3568221
vn 0 0.9341723 -0.3568221
vn 0 0.9341723 -0.3568221
vn 0 0.9341723 -0.3568221
vn 0.5773503 0.5773503 -0.5773503
vn 0.5773503 0.5773503 -0.5773503
vn 0.5773503 0.5773503 -0.5773503
vn 0.9341723 0.3568221 0
vn 0.9341723 0.3568221 0
vn 0.9341723 0.3568221 0
vn -0.5773503 0.5773503 0.5773503
vn -0.5773503 0.5773503 0.5773503
vn -0.5773503 0.5773503 0.5773503
vn 0.3568221 0 0.9341723
vn 0.3568221 0 0.9341723
vn 0.3568221 0 0.9341723
vn 0.9341723 -0.3568221 0
vn 0.9341723 -0.3568221 0
vn 0.9341723 -0.3568221 0
vn 0.3568221 0 -0.9341723
vn 0.3568221 0 -0.9341723
vn 0.3568221 0 -0.9341723
vn -0.5773503 0.5773503 -0.5773503
vn -0.5773503 0.5773503 -0.5773503
vn -0.5773503 0.5773503 -0.5773503
vn -0.5773503 -0.5773503 0.5773503
vn -0.5773503 -0.5773503 0.5773503
vn -0.5773503 -0.5773503 0.5773503
vn 0 -0.9341723 0.3568221
vn 0 -0.9341723 0.3568221
vn 0 -0.9341723 0.3568221
vn 0 -0.9341723 -0.3568221
vn 0 -0.9341723 -0.3568221
vn 0 -0.9341723 -0.3568221
vn -0.5773503 -0.5773503 -0.5773503
vn -0.5773503 -0.5773503 -0.5773503
vn -0.5773503 -0.5773503 -0.5773503
vn -0.9341723 -0.3568221 0
vn -0.9341723 -0.3568221 0
vn -0.9341723 -0.3568221 0
vn -0.3568221 0 0.9341723
vn -0.3568221 0 0.9341723
vn -0.3568221 0 0.9341723
vn 0.5773503 -0.5773503 0.5773503
vn 0.5773503 -0.5773503 0.5773503
vn 0.5773503 -0.5773503 0.5773503
vn 0.5773503 -0.5773503 -0.5773503
vn 0.5773503 -0.5773503 -0.5773503
vn 0.5773503 -0.5773503 -0.5773503
vn -0.3568221 0 -0.9341723
vn -0.3568221 0 -0.9341723
vn -0.3568221 0 -0.9341723
vn -0.9341723 0.3568221 0
vn -0.9341723 0.3568221 0
vn -0.9341723 0.3568221 0

vt 0.5257311 0.8506508
vt 0.8506508 0
vt 0 0.5257311
vt -0.5257311 0
vt 0 0.8506508
vt 0.5257311 0
vt -0.5257311 0
vt 0.5257311 0
vt 0 -0.8506508
vt -0.5257311 0.8506508
vt 0 0.5257311
vt -0.8506508 0
vt 0 0.8506508
vt 0.5257311 0
vt -0.5257311 0
vt -0.5257311 0.8506508
vt 0 0.5257311
vt -0.8506508 0
vt 0 0.5257311
vt 0.8506508 0
vt 0 -0.5257311
vt -0.5257311 0
vt 0.5257311 0
vt 0 -0.8506508
vt -0.8506508 0
vt 0 0.5257311
vt 0 -0.5257311
vt 0 0.5257311
vt 0.5257311 0.8506508
vt 0.8506508 0
vt -0.5257311 -0.8506508
vt -0.8506508 0
vt 0 -0.5257311
vt -0.5257311 0
vt 0 0.8506508
vt 0.5257311 0
vt -0.5257311 0
vt 0.5257311 0
vt 0 -0.8506508
vt 0.5257311 -0.8506508
vt 0 -0.5257311
vt 0.8506508 0
vt 0 -0.8506508
vt -0.5257311 0
vt 0.5257311 0
vt 0 -0.5257311
vt -0.8506508 0
vt 0 0.5257311
vt 0.5257311 -0.8506508
vt 0 -0.5257311
vt 0.8506508 0
vt 0 -0.5257311
vt -0.5257311 -0.8506508
vt -0.8506508 0
vt 0.8506508 0
vt 0 -0.5257311
vt 0 0.5257311
vt 0.5257311 0
vt -0.5257311 0
vt 0 0.8506508

g Icosphere
usemtl Wireframe_Double-Sided
f 3/3/3 2/2/2 1/1/1
f 6/6/6 5/5/5 4/4/4
f 9/9/9 8/8/8 7/7/7
f 12/12/12 11/11/11 10/10/10
f 15/15/15 14/14/14 13/13/13
f 18/18/18 17/17/17 16/16/16
f 21/21/21 20/20/20 19/19/19
f 24/24/24 23/23/23 22/22/22
f 27/27/27 26/26/26 25/25/25
f 30/30/30 29/29/29 28/28/28
f 33/33/33 32/32/32 31/31/31
f 36/36/36 35/35/35 34/34/34
f 39/39/39 38/38/38 37/37/37
f 42/42/42 41/41/41 40/40/40
f 45/45/45 44/44/44 43/43/43
f 48/48/48 47/47/47 46/46/46
f 51/51/51 50/50/50 49/49/49
f 54/54/54 53/53/53 52/52/52
f 57/57/57 56/56/56 55/55/55
f 60/60/60 59/59/59 58/58/58

