# Exported from ProBuilder
# http://www.procore3d.com/probuilder
# 7/9/2018 2:30:07 AM

mtllib ./Prism.mtl
o Prism

g Prism
v 0 0 90
v -1 0 90
v -0.5 1 90.5
v -1 0 90
v -1 0 91
v -0.5 1 90.5
v -1 0 91
v 0 0 91
v -0.5 1 90.5
v 0 0 91
v 0 0 90
v -0.5 1 90.5
v 0 0 90
v -1 0 90
v 0 0 91
v -1 0 91

vn 0 0.4472136 -0.8944272
vn 0 0.4472136 -0.8944272
vn 0 0.4472136 -0.8944272
vn -0.8944272 0.4472136 0
vn -0.8944272 0.4472136 0
vn -0.8944272 0.4472136 0
vn 0 0.4472136 0.8944272
vn 0 0.4472136 0.8944272
vn 0 0.4472136 0.8944272
vn 0.8944272 0.4472136 0
vn 0.8944272 0.4472136 0
vn 0.8944272 0.4472136 0
vn 0 -1 0
vn 0 -1 0
vn 0 -1 0
vn 0 -1 0

vt -0.5 -0.6708204
vt 0.5 -0.6708204
vt 0 0.4472136
vt -0.5 -0.6708204
vt 0.5 -0.6708204
vt 0 0.4472136
vt -0.5 -0.6708204
vt 0.5 -0.6708204
vt 0 0.4472136
vt -0.5 -0.6708204
vt 0.5 -0.6708204
vt 0 0.4472136
vt 0.5 -0.5
vt -0.5 -0.5
vt 0.5 0.5
vt -0.5 0.5

g Prism_0
usemtl Wireframe_Double-Sided
f 15/15/15 16/16/16 14/14/14 13/13/13

g Prism_1
usemtl Wireframe_Double-Sided
f 1/1/1 2/2/2 3/3/3
f 4/4/4 5/5/5 6/6/6
f 7/7/7 8/8/8 9/9/9
f 10/10/10 11/11/11 12/12/12

